<svg xmlns="http://www.w3.org/2000/svg" data-name="Layer 1" viewBox="0 0 100 100" x="0px" y="0px"><title>78 all</title><path d="M97,91V9a2,2,0,0,0-2-2H5A2,2,0,0,0,3,9V91a2,2,0,0,0,2,2H95A2,2,0,0,0,97,91ZM7,11H93v9.5H7ZM7,89V24.5H93V89Z"></path><path d="M85,35.5H50a2,2,0,0,0-2,2v9a2,2,0,0,0,2,2H85a2,2,0,0,0,2-2v-9A2,2,0,0,0,85,35.5Zm-2,9H52v-5H83Z"></path><polygon points="25.3 45.34 15.56 37.59 13.07 40.73 25.83 50.87 40.87 33.38 37.84 30.77 25.3 45.34"></polygon><path d="M85,63.5H50a2,2,0,0,0-2,2v9a2,2,0,0,0,2,2H85a2,2,0,0,0,2-2v-9A2,2,0,0,0,85,63.5Zm-2,9H52v-5H83Z"></path><polygon points="36.41 58.27 27.5 67.17 18.59 58.27 15.77 61.09 24.67 70 15.77 78.91 18.59 81.73 27.5 72.83 36.41 81.73 39.23 78.91 30.33 70 39.23 61.09 36.41 58.27"></polygon></svg>