<svg id="Layer_1" data-name="Layer 1" xmlns="http://www.w3.org/2000/svg" viewBox="0 0 448 448"><defs><style>.cls-1{fill:#fff;}.cls-2{font-size:86.1px;fill:#f2f2f2;font-family:Verdana-Bold, Verdana;font-weight:700;}</style></defs><title>maddevskilz-flask</title><path class="cls-1" d="M461.38,373.47,323.12,220.4V99.07h22.42c5.6,0,9.34-3.73,9.34-9.33V39.33c0-5.6-3.74-9.33-9.34-9.33H164.31c-5.6,0-9.34,3.73-9.34,9.33v50.4c0,5.6,3.74,9.33,9.34,9.33h22.42v28h0v47.6h0v44.8l-138.26,154c-14.95,16.8-21.49,41.07-14.95,61.6C40.07,461.2,61.56,478,85.84,478H423.07c24.29,0,45.77-16.8,53.25-42.93C482.86,414.53,477.26,390.27,461.38,373.47ZM173.65,80.4V48.67H336.2V80.4Zm26.16,153.07h32.7c5.6,0,9.34-3.73,9.34-9.33s-3.74-9.33-9.34-9.33h-28V184.93h28c5.6,0,9.34-3.73,9.34-9.33s-3.74-9.33-9.34-9.33h-28V136.4h28c5.6,0,9.34-3.73,9.34-9.33s-3.74-9.33-9.34-9.33h-28V99.07h100V224.13a10.08,10.08,0,0,0,2.8,6.53l88.75,98c-26.16,8.4-62.59,6.53-85.94-3.73-30.83-14-79.4-14-110.23,0-22.42,10.27-59.79,11.2-85.94,3.73ZM458.57,430.4c-4.67,17.73-18.68,28.93-35.5,28.93H85.84C70,459.33,56,447.2,50.35,430.4c-4.67-14.93,0-32.67,11.21-44.8l38.3-42.93c30.83,12.13,76.6,12.13,106.49-.93,26.16-11.2,69.13-11.2,95.28,0,15.88,6.53,35.5,10.27,55.12,10.27,18.68,0,36.43-2.8,51.38-9.33l38.3,42.93C458.57,397.73,463.24,415.47,458.57,430.4Z" transform="translate(-31 -30)"/><text class="cls-2" transform="translate(99.7 395.81)">&lt; /&gt;</text></svg>