<svg fill="#3949ab" xmlns="http://www.w3.org/2000/svg" xmlns:xlink="http://www.w3.org/1999/xlink" version="1.1" x="0px" y="0px" viewBox="0 0 100 100" style="enable-background:new 0 0 100 100;" xml:space="preserve"><style type="text/css">
	.st0{fill-rule:evenodd;clip-rule:evenodd;fill:#B36AE2;}
	.st1{fill:#B36AE2;}
	.st2{fill:#B36AE2;}
	.st3{fill-rule:evenodd;clip-rule:evenodd;}
	.st4{fill-rule:evenodd;clip-rule:evenodd;fill:#B36AE2;}
	.st5{fill-rule:evenodd;clip-rule:evenodd;fill:none;stroke:#B36AE2;stroke-width:2.4400001;stroke-miterlimit:10;}
	.st6{fill-rule:evenodd;clip-rule:evenodd;fill:#B36AE2;stroke:#B36AE2;stroke-width:2.4400001;stroke-miterlimit:10;}
	.st7{fill:none;stroke:#B36AE2;stroke-linecap:round;stroke-linejoin:round;stroke-miterlimit:10;}
	.st8{fill:none;stroke:#B36AE2;stroke-width:4;stroke-linecap:round;stroke-linejoin:round;stroke-miterlimit:10;}
</style><path class="st3" d="M44.9751587,88.4726105c-1.7751846,0-1.7751846-2.6991119,0-2.6991119h5.2675018  c1.7750435,0,1.7750435,2.6991119,0,2.6991119H44.9751587z"></path><path class="st3" d="M43.3808975,79.0711823c0-2.3292923,1.8986015-4.22789,4.2280312-4.22789  c2.3292885,0,4.2278862,1.8985977,4.2278862,4.22789c0,2.3294296-1.8985977,4.2280273-4.2278862,4.2280273  C45.2794991,83.2992096,43.3808975,81.4006119,43.3808975,79.0711823L43.3808975,79.0711823z M45.4050217,79.0711823  c0,1.222908,0.980999,2.2039032,2.203907,2.2039032c1.2227669,0,2.2037621-0.9809952,2.2037621-2.2039032  c0-1.2227707-0.9809952-2.2037659-2.2037621-2.2037659C46.3860207,76.8674164,45.4050217,77.8484116,45.4050217,79.0711823z"></path><path d="M73.3743591,23.3999023c-1.2705078-1.6074219-3.1738281-2.5292969-5.2226563-2.5292969h-2.6188354l1.4655151-12.2250977  c0.0147095-0.0806274,0.0192871-0.1639404,0.0224609-0.2476807c0.0004883-0.0169067,0.0058594-0.0326538,0.0058594-0.0496826  c0-0.0021973-0.0007324-0.0042114-0.0007324-0.0064087c0-0.0028076,0.0007324-0.0054321,0.0007324-0.0082397l-0.001709-0.0001221  C66.9873962,3.999939,50.8471336,3.7797852,47.6087303,3.7797852S28.2310448,3.999939,28.1934471,8.333374l-0.001709,0.0001221  c0,0.0028076,0.0007324,0.0054321,0.0007324,0.0082397c0,0.0021973-0.0007324,0.0042114-0.0007324,0.0064087  c0,0.0170288,0.0053711,0.0327759,0.0058594,0.0496826c0.0031738,0.0837402,0.0077515,0.1670532,0.0224609,0.2476807  l6.355835,53.0283203c-1.2918701,0.2338867-2.5801392,0.5405884-3.7919312,1.0314941  c-0.9578857,0.3880615-2.1478271,0.9688721-2.4989014,2.02771c-0.1856079,0.5598145-0.1617432,1.2514038-0.2134399,1.8392334  c-0.296814,3.3764038-0.5936279,6.7528687-0.8904419,10.1293335c-0.3242188,3.6882935-0.6484375,7.3765869-0.9726563,11.0648804  c-0.0744019,0.8463745-0.197937,1.7041626-0.2244873,2.5537109c-0.0326538,1.0441895,0.6700439,1.7127075,1.5106201,2.2431641  c1.7755127,1.1205444,3.9543457,1.6540527,5.9790039,2.109314c2.6608276,0.5983887,5.3724976,0.9780273,8.0862427,1.2346802  c5.0488892,0.477417,10.0774536,0.3326416,15.1028442-0.3430176c2.5493774-0.3427734,5.1071777-0.7926636,7.5722084-1.5397949  c1.5371704-0.4658813,3.59198-1.0669556,4.6113892-2.418457c0.4662476-0.618103,0.3931885-1.1660156,0.3312988-1.8720093  c-0.1079712-1.2312012-0.2159424-2.4624023-0.3239136-3.6936035c-0.5969238-6.8066406-1.1937866-13.6132813-1.7907104-20.4199219  c-0.0137329-0.1567383-0.0274658-0.3134155-0.0411987-0.4701538c-0.1369019-1.164917-1.2334595-1.8408203-2.2202148-2.2878418  c-1.3089638-0.5929565-2.7363319-0.93396-4.159977-1.1888428l0.9763794-8.1453247  c0.157959-0.0092773,0.3168945-0.0235596,0.4741211-0.0723267c4.495121-1.3828125,7.9599648-5.0839844,9.0449257-9.6586914  l3.4921875-14.7329102C75.1018982,27.0712891,74.6448669,25.0068359,73.3743591,23.3999023z M47.6087303,6.2202148  c9.4741211,0,15.1304932,1.2698975,16.6743813,2.118103c-1.5266151,0.8479004-7.1770058,2.1231079-16.6743813,2.1231079  c-9.49646,0-15.1467896-1.2752075-16.6734009-2.1231079C32.4792137,7.4901123,38.1355858,6.2202148,47.6087303,6.2202148z   M64.8108826,67.8544922c0.387085,4.4054565,0.774231,8.8109131,1.1613159,13.2163696  c0.2236938,2.5460815,0.4474487,5.0921021,0.6711426,7.6381836c0.0343018,0.3901367,0.277771,1.2011108,0.1381226,1.5716553  c-0.2356567,0.625061-1.8925781,1.0019531-2.4473267,1.1831055c-5.3134804,1.7354126-11.1633339,2.3164673-16.7254066,2.3164673  c-5.2022705,0-10.5330811-0.5667725-15.5554199-1.9655762c-0.7513428-0.2092285-1.5013428-0.4378662-2.225769-0.7285156  c-0.3206787-0.1286011-1.1414185-0.3690186-1.3361206-0.6959229c-0.1585693-0.2662354,0.0108032-0.862854,0.0383301-1.1756592  c0.4737549-5.388916,0.9475098-10.777832,1.4212646-16.166748c0.1521606-1.7311401,0.3043823-3.4622192,0.456543-5.1933594  c2.5932007,1.3931885,5.6685181,1.9625854,8.5489502,2.4058838c2.9106445,0.447998,5.8685913,0.6861572,8.8141479,0.6744385  c2.8841553-0.0114136,5.7747192-0.2509155,8.6240845-0.6951904C59.2325096,69.7971191,62.2577782,69.227478,64.8108826,67.8544922z   M57.1687279,67.6727905c-3.1486206,0.574646-6.3610229,0.8233032-9.5599976,0.8233032  c-3.1987305,0-6.4109497-0.2486572-9.5593262-0.8233032c-2.2526855-0.4111328-5.3771973-0.8690186-7.2141113-2.3692017  c1.1563721-0.7061157,2.6708984-0.9741211,4.0383301-1.2003174c0.2797852,2.7678833,8.0585327,3.1887207,12.7351074,3.1887207  c4.6766968,0,12.4556885-0.4208374,12.7351685-3.1889038c1.3682251,0.2263184,2.8822021,0.4939575,4.0392494,1.2005005  C62.5434227,66.8060913,59.4260521,67.2608032,57.1687279,67.6727905z M57.9573631,63.5644531  c-0.829895,0.480835-4.2163696,1.2404785-9.8486328,1.2839355v-6.4313965h2.3759766c0.2763672,0,0.5-0.2236328,0.5-0.5  s-0.2236328-0.5-0.5-0.5h-2.3759766v-6.7783203h2.3759766c0.2763672,0,0.5-0.2236328,0.5-0.5s-0.2236328-0.5-0.5-0.5h-2.3759766  v-6.7773438h2.3759766c0.2763672,0,0.5-0.2236328,0.5-0.5s-0.2236328-0.5-0.5-0.5h-2.3759766v-6.777832h2.3759766  c0.2763672,0,0.5-0.2236328,0.5-0.5s-0.2236328-0.5-0.5-0.5h-2.3759766v-6.777832h2.3759766c0.2763672,0,0.5-0.2236328,0.5-0.5  s-0.2236328-0.5-0.5-0.5h-2.3759766v-6.777832h2.3759766c0.2763672,0,0.5-0.2236328,0.5-0.5s-0.2236328-0.5-0.5-0.5h-2.8759766  c-0.2763672,0-0.5,0.2236328-0.5,0.5v45.8205566c-5.6322632-0.043457-9.0187378-0.8031006-9.8486328-1.2839355l-6.3043213-52.598938  c4.7647095,1.8282471,14.2520752,1.9509888,16.6529541,1.9509888s11.888916-0.1227417,16.6539345-1.9510498L57.9573631,63.5644531z   M70.7366638,28.1411133l-3.4921875,14.7333984c-0.6565552,2.7699585-2.5634155,5.0772705-5.1017494,6.2769775l2.9106483-24.2808838  h3.0983276c0.8173828,0,1.5771484,0.3681641,2.0849609,1.0097656  C70.7434998,26.5214844,70.9261169,27.3452148,70.7366638,28.1411133z"></path></svg>