<svg fill="#3949ab" xmlns="http://www.w3.org/2000/svg" xmlns:xlink="http://www.w3.org/1999/xlink" version="1.1" x="0px" y="0px" viewBox="0 0 128 128" enable-background="new 0 0 128 128" xml:space="preserve"><g><path d="M58.1,72.2c0.4,0.2,0.8,0.3,1.4,0.5c0.3,0,0.6,0.1,0.8,0.1c1.6,0,3-0.8,3.9-2.1c0.9,1.2,2.3,2.1,3.9,2.1   c0.3,0,0.5,0,0.9-0.1c0.5-0.1,0.9-0.3,1.3-0.5c6.4-2.7,14-10,14-21.7c0-10.6-4.3-19.9-12.7-27.6c-0.3-0.3-0.6-0.6-1-0.9   c-0.7-0.5-1.6-0.7-2.5-0.7c-1.6,0-3,0.8-3.9,2.1c-0.9-1.2-2.3-2.1-3.9-2.1c-0.9,0-1.7,0.2-2.5,0.7l0,0c0,0,0,0,0,0c0,0,0,0,0,0   c0,0,0,0,0,0c-0.4,0.2-0.7,0.5-0.9,0.8c0,0,0,0,0,0c-8.4,7.7-12.7,17-12.7,27.6C44.1,62.2,51.6,69.5,58.1,72.2z M68.1,22.8   c0.6,0,1.2,0.2,1.6,0.4c0.3,0.2,0.6,0.5,0.9,0.7c1,0.9,1.9,1.8,2.7,2.7c0,0,0,0,0,0c0,0,1.4,1.6-1.3,6.2c-0.2,0.4-0.1,0.8,0.3,1   c0.1,0.1,0.3,0.1,0.4,0.1c0.3,0,0.5-0.1,0.6-0.4c1.2-2.1,1.7-3.7,1.9-4.9c1.7,2.2,3.2,4.4,4.3,6.8c-0.2,0.7-1,3.2-3.9,3.8   c-0.4,0.1-0.7,0.5-0.6,0.9c0.1,0.4,0.4,0.6,0.7,0.6c0,0,0.1,0,0.1,0c2.5-0.5,3.8-2,4.4-3.3c1,2.4,1.7,5,2.1,7.6   c-1.1-0.7-2.6-1.5-4.5-1.7c-2.5-0.2-4.9,0.8-7.3,3c-0.3,0.3-0.3,0.8-0.1,1.1c0.1,0.2,0.4,0.2,0.6,0.2c0.2,0,0.4-0.1,0.5-0.2   c2.1-1.9,4.1-2.7,6.2-2.6c2.5,0.2,4.4,1.8,4.9,2.4c0.1,1,0.1,2.1,0.1,3.1c0,11-7,17.8-13.1,20.3c-0.4,0.2-0.7,0.3-1.1,0.4   c-0.2,0-0.4,0.1-0.6,0.1c-1.5,0-2.8-1.1-3.1-2.5c0-0.2,0.1-0.5,0.1-0.7V53.3c1.3,0.8,3.5,1.7,5.9,1.4c1.6-0.2,3-0.9,4.3-2   c0.4,1.5,1.3,3.7,3.5,4.1c0.1,0,0.1,0,0.1,0c0.4,0,0.7-0.2,0.7-0.6c0.1-0.4-0.2-0.8-0.6-0.9c-2.3-0.5-2.5-4.3-2.5-4.4   c0-0.3-0.2-0.6-0.5-0.7c-0.3-0.1-0.6,0-0.8,0.3c-1.2,1.6-2.7,2.5-4.3,2.7c-2.5,0.3-4.8-1.1-5.8-1.7v-12c0.5-0.4,1.3-0.9,2.2-0.8   c0.6,0,1.1,0.4,1.6,1.1c0.1,0.2,0.4,0.3,0.6,0.3c0.2,0,0.3,0,0.4-0.1c0.3-0.2,0.4-0.7,0.2-1.1c-0.7-1-1.6-1.6-2.7-1.7   c-0.9-0.1-1.7,0.2-2.3,0.6V26.1c0-0.2,0-0.5-0.1-0.7C65.3,23.9,66.6,22.8,68.1,22.8z M57.8,24c0.3-0.3,0.6-0.5,0.8-0.7   c0.5-0.3,1.1-0.5,1.6-0.5c1.5,0,2.8,1.1,3.1,2.5c0,0.2-0.1,0.5-0.1,0.7v11.7c-0.6-0.3-1.5-0.6-2.3-0.6c-1.1,0.1-2,0.7-2.7,1.7   c-0.2,0.3-0.2,0.8,0.2,1.1c0.1,0.1,0.3,0.1,0.4,0.1c0.2,0,0.5-0.1,0.6-0.3c0.5-0.7,1-1,1.6-1.1c0.9-0.1,1.7,0.5,2.2,0.8v12   c-0.9,0.6-3.3,2-5.7,1.7c-1.7-0.2-3.1-1.1-4.4-2.7c-0.2-0.2-0.5-0.4-0.8-0.3c-0.3,0.1-0.5,0.4-0.5,0.7c0,0-0.2,3.9-2.5,4.4   c-0.4,0.1-0.7,0.5-0.6,0.9c0.1,0.4,0.4,0.6,0.7,0.6c0,0,0.1,0,0.1,0c2.2-0.4,3.1-2.6,3.5-4.1c1.3,1.2,2.7,1.8,4.3,2   c2.4,0.3,4.6-0.6,5.9-1.4V68c0,0.2,0,0.5,0.1,0.7c-0.3,1.4-1.6,2.5-3.1,2.5c-0.2,0-0.4,0-0.5,0c-0.4-0.1-0.8-0.3-1.2-0.4   c-6-2.5-13-9.3-13-20.3c0-1.1,0.1-2.1,0.1-3.1c0.5-0.5,2.3-2.2,4.9-2.4c2.1-0.1,4.1,0.7,6.2,2.6c0.1,0.1,0.3,0.2,0.5,0.2   c0.2,0,0.4-0.1,0.6-0.2c0.3-0.3,0.3-0.8-0.1-1.1c-2.4-2.1-4.8-3.1-7.3-3c-1.9,0.1-3.4,0.9-4.5,1.7c0.4-2.6,1.1-5.2,2.1-7.6   c0.7,1.3,2,2.8,4.4,3.3c0,0,0.1,0,0.1,0c0.4,0,0.7-0.2,0.7-0.6c0.1-0.4-0.2-0.8-0.6-0.9c-2.9-0.6-3.7-3-3.9-3.8   c1.1-2.4,2.6-4.6,4.3-6.8c0.1,1.2,0.6,2.8,1.9,4.9c0.1,0.2,0.4,0.4,0.6,0.4c0.1,0,0.3,0,0.4-0.1c0.4-0.2,0.5-0.7,0.3-1   c-2.7-4.5-1.4-6.1-1.3-6.2c0,0,0,0,0,0C56,25.8,56.9,24.9,57.8,24z"></path><path d="M55,65.9c0,0,0.1,0,0.1,0c0.4-0.1,0.7-0.5,0.6-0.9c0,0-0.4-2.3,0.8-4.1c0.7-1,1.8-1.6,3.3-1.9c0.4-0.1,0.7-0.5,0.6-0.9   c-0.1-0.4-0.5-0.7-0.9-0.6c-1.9,0.3-3.4,1.2-4.3,2.5c-1.6,2.3-1,5.1-1,5.2C54.3,65.6,54.6,65.9,55,65.9z"></path><path d="M68.9,57.6c-0.4-0.1-0.8,0.2-0.9,0.6C68,58.6,68.2,59,68.6,59c1.5,0.3,2.6,0.9,3.3,1.9c1.2,1.7,0.8,4,0.8,4.1   c-0.1,0.4,0.2,0.8,0.6,0.9c0,0,0.1,0,0.1,0c0.4,0,0.7-0.2,0.7-0.6c0-0.1,0.6-2.9-1-5.2C72.3,58.7,70.8,57.9,68.9,57.6z"></path><path d="M115,54.5l-1.4-1.4c-0.3-0.3-0.8-0.3-1.1,0c-0.3,0.3-0.3,0.8,0,1.1l1.4,1.4c0.1,0.1,0.3,0.2,0.5,0.2c0.2,0,0.4-0.1,0.5-0.2   C115.3,55.3,115.3,54.8,115,54.5z"></path><path d="M117.1,58.8l1.4,1.4c0.1,0.1,0.3,0.2,0.5,0.2c0.2,0,0.4-0.1,0.5-0.2c0.3-0.3,0.3-0.8,0-1.1l-1.4-1.4   c-0.3-0.3-0.8-0.3-1.1,0C116.8,58,116.8,58.5,117.1,58.8z"></path><path d="M113.9,57.7l-1.4,1.4c-0.3,0.3-0.3,0.8,0,1.1c0.1,0.1,0.3,0.2,0.5,0.2c0.2,0,0.4-0.1,0.5-0.2l1.4-1.4   c0.3-0.3,0.3-0.8,0-1.1C114.7,57.4,114.2,57.4,113.9,57.7z"></path><path d="M117.6,55.8c0.2,0,0.4-0.1,0.5-0.2l1.4-1.4c0.3-0.3,0.3-0.8,0-1.1c-0.3-0.3-0.8-0.3-1.1,0l-1.4,1.4c-0.3,0.3-0.3,0.8,0,1.1   C117.2,55.7,117.4,55.8,117.6,55.8z"></path><path d="M67.6,120.2c-0.3-0.3-0.8-0.3-1.1,0c-0.3,0.3-0.3,0.8,0,1.1l1.4,1.4c0.1,0.1,0.3,0.2,0.5,0.2c0.2,0,0.4-0.1,0.5-0.2   c0.3-0.3,0.3-0.8,0-1.1L67.6,120.2z"></path><path d="M72.2,124.8c-0.3-0.3-0.8-0.3-1.1,0c-0.3,0.3-0.3,0.8,0,1.1l1.4,1.4c0.1,0.1,0.3,0.2,0.5,0.2c0.2,0,0.4-0.1,0.5-0.2   c0.3-0.3,0.3-0.8,0-1.1L72.2,124.8z"></path><path d="M67.9,124.8l-1.4,1.4c-0.3,0.3-0.3,0.8,0,1.1c0.1,0.1,0.3,0.2,0.5,0.2c0.2,0,0.4-0.1,0.5-0.2l1.4-1.4   c0.3-0.3,0.3-0.8,0-1.1C68.7,124.5,68.2,124.5,67.9,124.8z"></path><path d="M72.5,120.2l-1.4,1.4c-0.3,0.3-0.3,0.8,0,1.1c0.1,0.1,0.3,0.2,0.5,0.2c0.2,0,0.4-0.1,0.5-0.2l1.4-1.4   c0.3-0.3,0.3-0.8,0-1.1C73.3,119.9,72.8,119.9,72.5,120.2z"></path><path d="M9.8,61.6c-0.3-0.3-0.8-0.3-1.1,0c-0.3,0.3-0.3,0.8,0,1.1l1.4,1.4c0.1,0.1,0.3,0.2,0.5,0.2c0.2,0,0.4-0.1,0.5-0.2   c0.3-0.3,0.3-0.8,0-1.1L9.8,61.6z"></path><path d="M15.4,68.9c0.2,0,0.4-0.1,0.5-0.2c0.3-0.3,0.3-0.8,0-1.1l-1.4-1.4c-0.3-0.3-0.8-0.3-1.1,0c-0.3,0.3-0.3,0.8,0,1.1l1.4,1.4   C15,68.8,15.2,68.9,15.4,68.9z"></path><path d="M10.2,66.2l-1.4,1.4c-0.3,0.3-0.3,0.8,0,1.1c0.1,0.1,0.3,0.2,0.5,0.2c0.2,0,0.4-0.1,0.5-0.2l1.4-1.4c0.3-0.3,0.3-0.8,0-1.1   C11,65.9,10.5,65.9,10.2,66.2z"></path><path d="M13.4,64c0.1,0.1,0.3,0.2,0.5,0.2c0.2,0,0.4-0.1,0.5-0.2l1.4-1.4c0.3-0.3,0.3-0.8,0-1.1c-0.3-0.3-0.8-0.3-1.1,0L13.4,63   C13.1,63.3,13.1,63.8,13.4,64z"></path><path d="M111.2,7.1c0.1,0.1,0.3,0.2,0.5,0.2c0.2,0,0.4-0.1,0.5-0.2c0.3-0.3,0.3-0.8,0-1.1l-1.4-1.4c-0.3-0.3-0.8-0.3-1.1,0   c-0.3,0.3-0.3,0.8,0,1.1L111.2,7.1z"></path><path d="M115.8,11.7c0.1,0.1,0.3,0.2,0.5,0.2c0.2,0,0.4-0.1,0.5-0.2c0.3-0.3,0.3-0.8,0-1.1l-1.4-1.4c-0.3-0.3-0.8-0.3-1.1,0   c-0.3,0.3-0.3,0.8,0,1.1L115.8,11.7z"></path><path d="M110.3,11.9c0.2,0,0.4-0.1,0.5-0.2l1.4-1.4c0.3-0.3,0.3-0.8,0-1.1c-0.3-0.3-0.8-0.3-1.1,0l-1.4,1.4c-0.3,0.3-0.3,0.8,0,1.1   C109.9,11.9,110.1,11.9,110.3,11.9z"></path><path d="M114.9,7.3c0.2,0,0.4-0.1,0.5-0.2l1.4-1.4c0.3-0.3,0.3-0.8,0-1.1c-0.3-0.3-0.8-0.3-1.1,0L114.4,6c-0.3,0.3-0.3,0.8,0,1.1   C114.5,7.3,114.7,7.3,114.9,7.3z"></path><path d="M15.1,111.4c-0.3-0.3-0.8-0.3-1.1,0c-0.3,0.3-0.3,0.8,0,1.1l1.4,1.4c0.1,0.1,0.3,0.2,0.5,0.2c0.2,0,0.4-0.1,0.5-0.2   c0.3-0.3,0.3-0.8,0-1.1L15.1,111.4z"></path><path d="M19.7,116c-0.3-0.3-0.8-0.3-1.1,0c-0.3,0.3-0.3,0.8,0,1.1l1.4,1.4c0.1,0.1,0.3,0.2,0.5,0.2c0.2,0,0.4-0.1,0.5-0.2   c0.3-0.3,0.3-0.8,0-1.1L19.7,116z"></path><path d="M15.5,116l-1.4,1.4c-0.3,0.3-0.3,0.8,0,1.1c0.1,0.1,0.3,0.2,0.5,0.2c0.2,0,0.4-0.1,0.5-0.2l1.4-1.4c0.3-0.3,0.3-0.8,0-1.1   C16.2,115.7,15.7,115.7,15.5,116z"></path><path d="M20.1,111.4l-1.4,1.4c-0.3,0.3-0.3,0.8,0,1.1c0.1,0.1,0.3,0.2,0.5,0.2c0.2,0,0.4-0.1,0.5-0.2l1.4-1.4   c0.3-0.3,0.3-0.8,0-1.1C20.8,111.1,20.4,111.1,20.1,111.4z"></path><path d="M12.5,26.2c-0.4,0-0.8,0.3-0.8,0.8v10.5c0,0.4,0.3,0.8,0.8,0.8c0.4,0,0.8-0.3,0.8-0.8V26.9C13.2,26.5,12.9,26.2,12.5,26.2z   "></path><path d="M13.2,42.3c0-0.4-0.3-0.8-0.8-0.8c-0.4,0-0.8,0.3-0.8,0.8v3.7c0,0.4,0.3,0.8,0.8,0.8c0.4,0,0.8-0.3,0.8-0.8V42.3z"></path><path d="M118.3,85.4c-0.4,0-0.8,0.3-0.8,0.8v10.5c0,0.4,0.3,0.8,0.8,0.8c0.4,0,0.8-0.3,0.8-0.8V86.2   C119.1,85.7,118.8,85.4,118.3,85.4z"></path><path d="M118.3,106c0.4,0,0.8-0.3,0.8-0.8v-3.7c0-0.4-0.3-0.8-0.8-0.8c-0.4,0-0.8,0.3-0.8,0.8v3.7C117.6,105.7,117.9,106,118.3,106   z"></path><path d="M6.4,90.6c-1.8,0-3.2,1.4-3.2,3.2c0,1.8,1.4,3.2,3.2,3.2c1.8,0,3.2-1.4,3.2-3.2C9.6,92.1,8.1,90.6,6.4,90.6z M6.4,95.5   c-0.9,0-1.7-0.8-1.7-1.7c0-0.9,0.8-1.7,1.7-1.7c0.9,0,1.7,0.8,1.7,1.7C8.1,94.8,7.3,95.5,6.4,95.5z"></path><path d="M12.1,15.8c0,0.4,0.3,0.8,0.8,0.8h13.7c0.4,0,0.8-0.3,0.8-0.8c0-0.4-0.3-0.8-0.8-0.8H12.9C12.4,15.1,12.1,15.4,12.1,15.8z"></path><path d="M3.9,16.6h4.4c0.4,0,0.8-0.3,0.8-0.8c0-0.4-0.3-0.8-0.8-0.8H3.9c-0.4,0-0.8,0.3-0.8,0.8C3.2,16.3,3.5,16.6,3.9,16.6z"></path><path d="M3.9,11.9h9.5c0.4,0,0.8-0.3,0.8-0.8s-0.3-0.8-0.8-0.8H3.9c-0.4,0-0.8,0.3-0.8,0.8S3.5,11.9,3.9,11.9z"></path><path d="M17.6,11.9h3.1c0.4,0,0.8-0.3,0.8-0.8s-0.3-0.8-0.8-0.8h-3.1c-0.4,0-0.8,0.3-0.8,0.8S17.2,11.9,17.6,11.9z"></path><path d="M115.9,119.1c0-0.4-0.3-0.8-0.8-0.8h-13.7c-0.4,0-0.8,0.3-0.8,0.8c0,0.4,0.3,0.8,0.8,0.8h13.7   C115.6,119.8,115.9,119.5,115.9,119.1z"></path><path d="M118.9,119.1c0,0.4,0.3,0.8,0.8,0.8h4.4c0.4,0,0.8-0.3,0.8-0.8c0-0.4-0.3-0.8-0.8-0.8h-4.4   C119.2,118.3,118.9,118.7,118.9,119.1z"></path><path d="M124.1,123h-9.5c-0.4,0-0.8,0.3-0.8,0.8c0,0.4,0.3,0.8,0.8,0.8h9.5c0.4,0,0.8-0.3,0.8-0.8C124.8,123.4,124.5,123,124.1,123   z"></path><path d="M110.4,123h-3.1c-0.4,0-0.8,0.3-0.8,0.8c0,0.4,0.3,0.8,0.8,0.8h3.1c0.4,0,0.8-0.3,0.8-0.8C111.2,123.4,110.8,123,110.4,123   z"></path><path d="M105.2,103.6c2,0,3.6-1.6,3.6-3.6c0-2-1.6-3.6-3.6-3.6c-1.7,0-3.2,1.2-3.5,2.8l-7.5-0.1l-7.1-7.1V78.5H92   c0.4,0,0.8-0.3,0.8-0.8V53.6c0-0.4-0.3-0.8-0.8-0.8h-4.5c-0.4,0-0.8,0.3-0.8,0.8c0,0.4,0.3,0.8,0.8,0.8h3.8V77H37.1V54.4h3.8   c0.4,0,0.8-0.3,0.8-0.8c0-0.4-0.3-0.8-0.8-0.8h-4.5c-0.4,0-0.8,0.3-0.8,0.8v24.1c0,0.4,0.3,0.8,0.8,0.8h6v13.6l-7.1,7.1l-7.5,0.1   c-0.3-1.6-1.8-2.8-3.5-2.8c-2,0-3.6,1.6-3.6,3.6c0,2,1.6,3.6,3.6,3.6c1.7,0,3.2-1.2,3.5-2.8l7.9-0.1c0.2,0,0.4-0.1,0.5-0.2l7.5-7.5   c0.1-0.1,0.2-0.3,0.2-0.5V78.5H51v16l-10.4,10.4c-0.1,0.1-0.2,0.3-0.2,0.5v7.6c-1.6,0.3-2.8,1.8-2.8,3.5c0,2,1.6,3.6,3.6,3.6   c2,0,3.6-1.6,3.6-3.6c0-1.7-1.2-3.2-2.8-3.5v-7.3l10.4-10.4c0.1-0.1,0.2-0.3,0.2-0.5V78.5h7.2v20l-7.4,7.4   c-0.5-0.3-1.1-0.4-1.7-0.4c-2,0-3.6,1.6-3.6,3.6c0,2,1.6,3.6,3.6,3.6c2,0,3.6-1.6,3.6-3.6c0-0.8-0.3-1.6-0.8-2.2l7.6-7.6   c0.1-0.1,0.2-0.3,0.2-0.5V78.5h7v20.3c0,0.2,0.1,0.4,0.2,0.5l7.6,7.6c-0.5,0.6-0.8,1.4-0.8,2.2c0,2,1.6,3.6,3.6,3.6   c2,0,3.6-1.6,3.6-3.6c0-2-1.6-3.6-3.6-3.6c-0.6,0-1.2,0.2-1.7,0.4l-7.4-7.4v-20H77v16.3c0,0.2,0.1,0.4,0.2,0.5l10.4,10.4v7.3   c-1.6,0.3-2.8,1.8-2.8,3.5c0,2,1.6,3.6,3.6,3.6c2,0,3.6-1.6,3.6-3.6c0-1.7-1.2-3.2-2.8-3.5v-7.6c0-0.2-0.1-0.4-0.2-0.5L78.5,94.5   v-16h7.1v13.9c0,0.2,0.1,0.4,0.2,0.5l7.5,7.5c0.1,0.1,0.3,0.2,0.5,0.2l7.9,0.1C102.1,102.4,103.5,103.6,105.2,103.6z M24.3,102.1   c-1.2,0-2.1-0.9-2.1-2.1c0-1.2,0.9-2.1,2.1-2.1c1.2,0,2.1,0.9,2.1,2.1C26.4,101.2,25.4,102.1,24.3,102.1z M43.3,116.5   c0,1.2-0.9,2.1-2.1,2.1c-1.2,0-2.1-0.9-2.1-2.1c0-1.2,0.9-2.1,2.1-2.1C42.3,114.4,43.3,115.4,43.3,116.5z M50.6,111.2   c-1.2,0-2.1-0.9-2.1-2.1s0.9-2.1,2.1-2.1c0.4,0,0.8,0.1,1.1,0.3c0,0.1,0.1,0.1,0.1,0.1c0.1,0.1,0.2,0.1,0.3,0.2   c0.4,0.4,0.6,0.9,0.6,1.4C52.7,110.2,51.8,111.2,50.6,111.2z M81,109.1c0,1.2-0.9,2.1-2.1,2.1c-1.2,0-2.1-0.9-2.1-2.1   c0-0.6,0.2-1.1,0.6-1.4c0.1,0,0.2-0.1,0.3-0.2c0,0,0.1-0.1,0.1-0.1c0.3-0.2,0.7-0.3,1.1-0.3C80,107,81,107.9,81,109.1z M90.4,116.5   c0,1.2-0.9,2.1-2.1,2.1c-1.2,0-2.1-0.9-2.1-2.1c0-1.2,0.9-2.1,2.1-2.1C89.5,114.4,90.4,115.4,90.4,116.5z M105.2,97.9   c1.2,0,2.1,0.9,2.1,2.1c0,1.2-0.9,2.1-2.1,2.1c-1.2,0-2.1-0.9-2.1-2.1C103.1,98.9,104.1,97.9,105.2,97.9z"></path><path d="M97.4,53.1c-0.1,0.1-0.2,0.3-0.2,0.5v24.1c0,0.2,0.1,0.4,0.2,0.5l4.5,4.5c-0.1,0.4-0.2,0.8-0.2,1.2c0,2,1.6,3.6,3.6,3.6   s3.6-1.6,3.6-3.6c0-2-1.6-3.6-3.6-3.6c-1,0-1.9,0.4-2.6,1.1l-4-4V54l4-4c0.7,0.7,1.6,1.1,2.6,1.1c2,0,3.6-1.6,3.6-3.6   c0-2-1.6-3.6-3.6-3.6s-3.6,1.6-3.6,3.6c0,0.4,0.1,0.8,0.2,1.2L97.4,53.1z M105.2,81.9c1.2,0,2.1,0.9,2.1,2.1s-0.9,2.1-2.1,2.1   c-1.2,0-2.1-0.9-2.1-2.1S104.1,81.9,105.2,81.9z M105.2,45.3c1.2,0,2.1,0.9,2.1,2.1c0,1.2-0.9,2.1-2.1,2.1c-1.2,0-2.1-0.9-2.1-2.1   C103.1,46.3,104.1,45.3,105.2,45.3z"></path><path d="M32.4,77.8V53.6c0-0.2-0.1-0.4-0.2-0.5l-4.5-4.5c0.1-0.4,0.2-0.8,0.2-1.2c0-2-1.6-3.6-3.6-3.6c-2,0-3.6,1.6-3.6,3.6   c0,2,1.6,3.6,3.6,3.6c1,0,1.9-0.4,2.6-1.1l4,4v23.5l-4,4c-0.7-0.7-1.6-1.1-2.6-1.1c-2,0-3.6,1.6-3.6,3.6c0,2,1.6,3.6,3.6,3.6   c2,0,3.6-1.6,3.6-3.6c0-0.4-0.1-0.8-0.2-1.2l4.5-4.5C32.3,78.2,32.4,78,32.4,77.8z M24.3,49.5c-1.2,0-2.1-0.9-2.1-2.1   c0-1.2,0.9-2.1,2.1-2.1c1.2,0,2.1,0.9,2.1,2.1C26.4,48.6,25.4,49.5,24.3,49.5z M24.3,86.1c-1.2,0-2.1-0.9-2.1-2.1s0.9-2.1,2.1-2.1   c1.2,0,2.1,0.9,2.1,2.1S25.4,86.1,24.3,86.1z"></path><path d="M112.1,24.9c-0.2,0.4-0.1,0.8,0.2,1l6.3,3.9l-6.3,3.9c-0.4,0.2-0.5,0.7-0.2,1c0.1,0.2,0.4,0.4,0.6,0.4c0.1,0,0.3,0,0.4-0.1   l7.3-4.5c0.2-0.1,0.4-0.4,0.4-0.6s-0.1-0.5-0.4-0.6l-7.3-4.5C112.8,24.4,112.3,24.5,112.1,24.9z"></path><path d="M89.7,29.8c0,0.3,0.1,0.5,0.4,0.6l7.3,4.5c0.1,0.1,0.3,0.1,0.4,0.1c0.3,0,0.5-0.1,0.6-0.4c0.2-0.4,0.1-0.8-0.2-1l-6.3-3.9   l6.3-3.9c0.4-0.2,0.5-0.7,0.2-1c-0.2-0.4-0.7-0.5-1-0.2L90,29.2C89.8,29.3,89.7,29.5,89.7,29.8z"></path><path d="M102.4,37.2c0.1,0,0.2,0,0.3,0c0.3,0,0.6-0.2,0.7-0.5l5.2-13.7c0.1-0.4,0-0.8-0.4-1c-0.4-0.1-0.8,0-1,0.4l-5.2,13.7   C101.8,36.6,102,37.1,102.4,37.2z"></path><path d="M66.2,11.9C66.2,11.9,66.2,11.9,66.2,11.9c0.1,0.1,0.2,0.1,0.2,0.2c0.1,0,0.2,0.1,0.3,0.1c0.1,0,0.2,0,0.3-0.1   c0.1,0,0.2-0.1,0.2-0.2c0,0,0,0,0,0l3.2-3.2c0.3-0.3,0.3-0.8,0-1.1c-0.3-0.3-0.8-0.3-1.1,0l-1.9,1.9V1.3c0-0.4-0.3-0.8-0.8-0.8   c-0.4,0-0.8,0.3-0.8,0.8v8.3l-1.9-1.9c-0.3-0.3-0.8-0.3-1.1,0c-0.3,0.3-0.3,0.8,0,1.1L66.2,11.9z"></path><path d="M46.4,16.2L43.7,16c-0.4,0-0.8,0.3-0.8,0.7c0,0.4,0.3,0.8,0.7,0.8l4.5,0.3c0,0,0,0,0.1,0h0h0h0c0,0,0,0,0,0   c0.1,0,0.2,0,0.3-0.1c0,0,0.1,0,0.1-0.1c0,0,0.1,0,0.1-0.1c0,0,0,0,0,0c0.1-0.1,0.1-0.1,0.2-0.2c0,0,0,0,0,0c0-0.1,0.1-0.2,0.1-0.3   c0,0,0,0,0,0l0.3-4.5c0-0.4-0.3-0.8-0.7-0.8c-0.4,0-0.8,0.3-0.8,0.7l-0.2,2.6L42.1,9c-0.3-0.3-0.7-0.3-1.1-0.1   c-0.3,0.3-0.3,0.7-0.1,1.1L46.4,16.2z"></path><path d="M84.7,17.2c0,0.1,0,0.2,0.1,0.3c0,0,0,0,0,0c0,0.1,0.1,0.2,0.2,0.2c0,0,0,0,0,0c0,0,0.1,0,0.1,0.1c0,0,0.1,0,0.1,0.1   c0.1,0,0.2,0.1,0.3,0.1c0,0,0,0,0,0h0h0h0c0,0,0,0,0.1,0l4.5-0.3c0.4,0,0.7-0.4,0.7-0.8c0-0.4-0.4-0.7-0.8-0.7l-2.6,0.2l5.4-6.2   c0.3-0.3,0.2-0.8-0.1-1.1c-0.3-0.3-0.8-0.2-1.1,0.1l-5.4,6.2l-0.2-2.6c0-0.4-0.4-0.7-0.8-0.7c-0.4,0-0.7,0.4-0.7,0.8L84.7,17.2   C84.7,17.2,84.7,17.2,84.7,17.2z"></path><path d="M27,31.6c0,0.4,0.3,0.8,0.8,0.8l8.3,0l-1.9,1.9c-0.3,0.3-0.3,0.8,0,1.1c0.1,0.1,0.3,0.2,0.5,0.2c0.2,0,0.4-0.1,0.5-0.2   l3.2-3.1l0,0c0.1-0.1,0.1-0.2,0.2-0.2c0.1-0.2,0.1-0.4,0-0.6c0-0.1-0.1-0.2-0.1-0.2c0,0,0,0,0,0L35.2,28c-0.3-0.3-0.8-0.3-1.1,0   c-0.3,0.3-0.3,0.8,0,1.1l1.9,1.9l-8.3,0h0C27.4,30.9,27,31.2,27,31.6z"></path></g></svg>