<svg fill="#3949ab" xmlns="http://www.w3.org/2000/svg" xmlns:xlink="http://www.w3.org/1999/xlink" version="1.1" x="0px" y="0px" viewBox="0 0 100 100" enable-background="new 0 0 100 100" xml:space="preserve"><g><g><g><g><path d="M74.5,47.58c8.271,0,15,6.95,15,15.49s-6.729,15.49-15,15.49h-5.819C67.5,84.939,63.67,89.5,58.98,89.5h-19.4      c-2.95,0-5.72-1.83-7.59-5.03c-1.61-2.729-2.49-6.31-2.49-10.07c0-8.46,4.431-15.089,10.08-15.089h19.4      c2.96,0,5.729,1.829,7.6,5.02c1.34,2.29,2.16,5.16,2.4,8.23h5.52c4.96,0,9-4.261,9-9.49c0-5.24-4.04-9.49-9-9.49h-49      c-8.27,0-15-6.95-15-15.49s6.73-15.489,15-15.489h5.63c0.91-6.98,4.92-12.101,9.891-12.101H60.42c2.95,0,5.72,1.83,7.59,5.03      c1.61,2.729,2.49,6.31,2.49,10.07c0,4.229-1.11,8-2.92,10.72c-1.82,2.71-4.34,4.369-7.16,4.369H41.021      c-2.96,0-5.73-1.829-7.601-5.02c-1.17-2-1.95-4.439-2.29-7.069H25.5c-4.96,0-9,4.26-9,9.489c0,5.23,4.04,9.49,9,9.49H74.5z       M60.42,34.689c1.62,0,4.08-3.629,4.08-9.089c0-2.671-0.61-5.24-1.66-7.04c-0.76-1.291-1.659-2.061-2.42-2.061      c-1.63,0-4.09,3.63-4.09,9.101C56.33,31.061,58.79,34.689,60.42,34.689z M58.98,83.5c1.62,0,4.08-3.63,4.08-9.101      c0-2.659-0.601-5.229-1.66-7.039c-0.761-1.28-1.66-2.05-2.42-2.05H47.67c1.261,2.51,2,5.64,2,9.089c0,3.451-0.739,6.581-2,9.101      H58.98z M52.33,16.5h-11.31c-1.62,0-4.08,3.63-4.08,9.101c0,2.659,0.6,5.229,1.66,7.029c0.76,1.29,1.659,2.06,2.42,2.06h11.31      c-1.261-2.51-2-5.649-2-9.089C50.33,22.149,51.069,19.01,52.33,16.5z M43.67,74.399c0-5.47-2.46-9.089-4.09-9.089      c-1.62,0-4.08,3.619-4.08,9.089c0,2.671,0.61,5.24,1.66,7.04c0.76,1.291,1.659,2.061,2.42,2.061      C41.21,83.5,43.67,79.87,43.67,74.399z"></path><path d="M84.851,13.83c6.18,6.48,6.17,17.04-0.011,23.53c-0.59,0.62-1.38,0.93-2.17,0.93c-0.75,0-1.489-0.271-2.069-0.83      c-1.2-1.14-1.25-3.04-0.101-4.24c4.01-4.21,4.01-11.05,0.01-15.26c-1.14-1.2-1.1-3.1,0.101-4.24      C81.811,12.58,83.71,12.63,84.851,13.83z"></path><path d="M77.54,18.17c3.891,4.15,3.92,10.9,0.08,15.05c-0.59,0.641-1.4,0.96-2.2,0.96c-0.729,0-1.47-0.26-2.04-0.8      c-1.22-1.12-1.29-3.02-0.16-4.24c1.721-1.85,1.69-5-0.06-6.859c-1.13-1.2-1.07-3.101,0.14-4.24      C74.5,16.91,76.4,16.97,77.54,18.17z"></path><path d="M26.84,77.72c1.13,1.2,1.07,3.101-0.14,4.24c-0.58,0.54-1.311,0.81-2.05,0.81c-0.8,0-1.601-0.319-2.19-0.939      c-3.891-4.15-3.92-10.9-0.08-15.05c1.13-1.22,3.03-1.29,4.24-0.16c1.22,1.12,1.29,3.02,0.16,4.24      C25.061,72.71,25.09,75.86,26.84,77.72z"></path><path d="M19.49,82.04c1.14,1.19,1.1,3.09-0.101,4.24c-0.579,0.55-1.329,0.82-2.07,0.82c-0.789,0-1.579-0.311-2.169-0.931      c-6.181-6.48-6.17-17.04,0.01-23.53c1.14-1.2,3.04-1.25,4.24-0.1c1.2,1.14,1.25,3.04,0.1,4.24      C15.5,70.99,15.49,77.83,19.49,82.04z"></path></g></g></g></g></svg>