<svg xmlns="http://www.w3.org/2000/svg" xmlns:xlink="http://www.w3.org/1999/xlink" xml:space="preserve" version="1.1" style="shape-rendering:geometricPrecision;text-rendering:geometricPrecision;image-rendering:optimizeQuality;" viewBox="0 0 7903 8155" x="0px" y="0px" fill-rule="evenodd" clip-rule="evenodd"><defs><style type="text/css">
   
    .fil0 {fill:black}
   
  </style></defs><g><path class="fil0" d="M2694 1261l513 -340 -513 -340 4495 0 513 340 -513 340 -4495 0zm1598 -1261l-681 0 0 470 -1285 0 680 451 -680 451 1285 0 0 275 -2930 0c-227,151 -454,301 -681,451 227,150 454,301 681,451l2930 0 0 275 -2876 0 -681 451 681 451 2876 0 0 3854c-617,63 -1075,297 -1076,575 944,0 1888,0 2832,0 -1,-278 -458,-512 -1075,-575l0 -3854 1339 0 -681 -451 681 -451 -1339 0 0 -275 1285 0c-227,-150 -454,-301 -681,-451 227,-150 454,-300 681,-451l-1285 0 0 -275 2930 0 681 -451 -681 -451 -2930 0 0 -470zm-570 470l0 -359 459 0 0 359 -459 0zm0 1177l0 -275 459 0 0 275 -459 0zm0 1177l0 -275 459 0 0 275 -459 0zm459 902l0 3954c290,30 845,110 1033,364 -842,0 -1684,0 -2526,0 189,-254 744,-334 1034,-364l0 -3954 459 0zm1082 -111l-4495 0 -513 -340 513 -340 4494 0 -512 340 513 340zm-54 -1177l-4495 0 -513 -340 513 -340 4494 0 -513 340 514 340z"></path></g></svg>