<svg xmlns="http://www.w3.org/2000/svg" xmlns:xlink="http://www.w3.org/1999/xlink" version="1.1" x="0px" y="0px" viewBox="0 0 100 100" enable-background="new 0 0 100 100" xml:space="preserve"><g><path d="M50.592,38.385c4.061,0,7.354-3.292,7.354-7.353c0-4.06-3.293-7.352-7.354-7.352c-4.059,0-7.352,3.292-7.352,7.352   C43.241,35.092,46.534,38.385,50.592,38.385z"></path><path d="M77.511,43.692c-1.33-1.291-3.461-1.264-4.758,0.072l-4.924,5.074l-8.815-6.222C58.445,42.215,57.767,42,57.072,42H44.055   c-0.565,0-1.121,0.143-1.616,0.414L32.36,47.937l-5.098-5.307c-1.286-1.338-3.416-1.382-4.757-0.096   c-1.34,1.289-1.383,3.418-0.095,4.758l6.883,7.165c1.054,1.095,2.704,1.353,4.036,0.618L42,50.32v40.762   c0,1.857,1.142,3.364,3,3.364c1.858,0,3-1.507,3-3.364V66h4v25.082c0,1.857,1.141,3.364,2.999,3.364S58,92.939,58,91.082V50.095   l8.33,5.901c0.586,0.412,1.25,0.614,1.926,0.614c0.883,0,1.752-0.348,2.406-1.021l6.926-7.139   C78.881,47.117,78.846,44.987,77.511,43.692z"></path></g><g><path d="M48.576,12.183c0-2.169,2.702-2.426,2.702-3.694c0-0.57-0.441-1.048-1.451-1.048c-0.919,0-1.691,0.441-2.261,1.14   l-1.488-1.672c0.974-1.158,2.444-1.782,4.024-1.782c2.372,0,3.823,1.194,3.823,2.903c0,2.683-3.069,2.885-3.069,4.429   c0,0.293,0.147,0.606,0.349,0.771l-2.021,0.588C48.796,13.396,48.576,12.826,48.576,12.183z M48.576,16.281   c0-0.809,0.68-1.488,1.488-1.488c0.81,0,1.489,0.68,1.489,1.488s-0.679,1.488-1.489,1.488   C49.255,17.769,48.576,17.089,48.576,16.281z"></path></g></svg>