<svg xmlns="http://www.w3.org/2000/svg" data-name="Layer 1" viewBox="0 0 100 100" x="0px" y="0px"><title>105all</title><path d="M78,38.49C77.52,21.8,62.68,7.85,45.17,7.85c-13.7,0-26.71,8.8-31,20.94-2.89,6.47-1.56,17.6-.39,27.42.37,3.11.72,6,.88,8.44a59.13,59.13,0,0,1-.13,9.57L12.9,91.16l8,.76L22.48,75a67.05,67.05,0,0,0,.15-10.87c-.18-2.6-.54-5.63-.92-8.84-1-8-2.26-18.91-.21-23.29.06-.12.11-.25.16-.38,3.11-9,13.23-15.75,23.53-15.75C58.39,15.85,70,26.79,70,39.27a4,4,0,0,0,.27,1.46l7.68,19.65-4.41.42A4,4,0,0,0,70,64L67.46,76.24,57.1,75.55a4,4,0,0,0-4.26,4.14l.46,12.46,8-.3-.3-8,9.42.63a4,4,0,0,0,4.18-3.18l2.63-12.79L84,67.84a4,4,0,0,0,3.35-5.44Z"></path><path d="M41.72,31.38l-.1,0a1.41,1.41,0,0,0-1.09,1.36s0,0,0,0l.09,4.83a1.35,1.35,0,0,0,.39,1A1.41,1.41,0,0,0,42,39l2.61.19c.14.28.28.52.45.79s.33.54.52.79l-.89,2.53a1.41,1.41,0,0,0,0,1,1.35,1.35,0,0,0,.7.8l4.21,2.25a1.36,1.36,0,0,0,1.8-.31l0-.07,1.48-2.17a8.33,8.33,0,0,0,1.79,0l1.54,2.08A1.38,1.38,0,0,0,58,47.3l4.11-2.52A1.38,1.38,0,0,0,62.56,43L61.4,40.64a9.35,9.35,0,0,0,.86-1.56l2.59-.33h.08A1.4,1.4,0,0,0,66,37.38s0,0,0,0l-.09-4.83a1.35,1.35,0,0,0-.39-1,1.41,1.41,0,0,0-1-.42L62,30.92c-.14-.28-.28-.52-.45-.79s-.32-.52-.5-.76l1-2.43a1.39,1.39,0,0,0,0-1,1.35,1.35,0,0,0-.7-.8L57.2,22.87a1.24,1.24,0,0,0-1-.18,1.49,1.49,0,0,0-.8.49l0,.06-1.48,2.17a8.15,8.15,0,0,0-1.8,0l-1.65-2.12a1.38,1.38,0,0,0-1.81-.4l-4.11,2.52A1.38,1.38,0,0,0,44,27.24l1.16,2.34a9.38,9.38,0,0,0-.85,1.54Zm8.62-1.1a5.52,5.52,0,1,1-1.83,7.6A5.47,5.47,0,0,1,50.34,30.28Z"></path><path d="M23.79,47.35l-.07,0a1.1,1.1,0,0,0-.37,1.32v0l1.57,3.46a1.06,1.06,0,0,0,.59.59,1.11,1.11,0,0,0,.82,0l1.94-.68c.18.16.37.29.57.43s.41.29.62.41l.14,2.1a1.11,1.11,0,0,0,.28.74,1.06,1.06,0,0,0,.75.36l3.74.32a1.07,1.07,0,0,0,1.21-.78l0-.06.39-2A6.55,6.55,0,0,0,37.29,53l1.76,1a1.08,1.08,0,0,0,1.44-.27l2.19-3.1a1.08,1.08,0,0,0-.23-1.45l-1.57-1.33A7.35,7.35,0,0,0,41,46.52l1.77-1,.05,0a1.1,1.1,0,0,0,.37-1.32v0l-1.57-3.46A1.06,1.06,0,0,0,41,40a1.11,1.11,0,0,0-.82,0l-1.94.68c-.18-.16-.37-.29-.57-.43s-.39-.28-.6-.4V37.81a1.1,1.1,0,0,0-.28-.75,1.06,1.06,0,0,0-.75-.36l-3.74-.32a1,1,0,0,0-.78.18,1.17,1.17,0,0,0-.42.6l0,.06-.39,2a6.41,6.41,0,0,0-1.29.57l-1.85-1a1.08,1.08,0,0,0-1.43.28l-2.19,3.09a1.08,1.08,0,0,0,.23,1.45L25.74,45a7.37,7.37,0,0,0-.13,1.38Zm5.77-3.55A4.47,4.47,0,1,1,30.64,50,4.43,4.43,0,0,1,29.57,43.79Z"></path></svg>